<?xml version="1.0" encoding="utf-8"?>
<!-- Generator: Adobe Illustrator 23.1.0, SVG Export Plug-In . SVG Version: 6.00 Build 0)  -->
<svg version="1.1" id="Capa_1" xmlns="http://www.w3.org/2000/svg" xmlns:xlink="http://www.w3.org/1999/xlink" x="0px" y="0px"
	 viewBox="0 0 20 20" style="enable-background:new 0 0 20 20;" xml:space="preserve">
<style type="text/css">
	.st0{fill:#FFFFFF;}
</style>
<g>
	<path class="st0" d="M0.2,18c0-5.3,0-10.6,0-16c0,0,0,0,0-0.1c0.1-0.6,0.4-1,0.9-1.4C1.4,0.4,1.7,0.3,2,0.2c5.3,0,10.6,0,16,0
		c0,0,0,0,0.1,0c1,0.2,1.7,1,1.7,2.1c0,5.1,0,10.2,0,15.3c0,1.2-0.9,2.1-2.1,2.1c-5.1,0-10.2,0-15.4,0c-0.9,0-1.8-0.6-2-1.5
		C0.3,18.2,0.3,18.1,0.2,18z M11.4,13.5c0.4,0.4,0.5,0.9,0.5,1.4c0,0.6,0,1.3,0,1.9c0,0.4,0.2,0.6,0.6,0.4c4-1.3,6.1-5.8,4.5-9.7
		c-1.5-4-5.9-5.9-9.8-4.3C4.3,4.4,2.8,6.7,2.5,9.8c-0.1,2.1,0.5,3.9,1.9,5.4c0.8,0.9,1.9,1.6,3.1,2c0.4,0.1,0.6,0,0.6-0.4
		c0-0.4,0-0.8,0-1.1c0-0.1,0-0.1-0.1-0.1c-0.3,0.1-0.6,0.1-0.9,0.1c-0.7-0.1-1.2-0.4-1.5-1.1c-0.2-0.4-0.4-0.8-0.8-1
		c-0.1-0.1-0.3-0.2-0.2-0.3c0.1-0.1,0.3-0.1,0.4-0.1c0.5,0.1,0.8,0.4,1.1,0.8c0.5,0.8,1.2,1,2,0.7c0.1,0,0.1-0.1,0.2-0.2
		c0.1-0.3,0.2-0.5,0.4-0.8c0,0,0.1,0,0-0.1c-0.3,0-0.5-0.1-0.8-0.1C7,13.2,6.2,12.8,5.7,12c-0.3-0.5-0.4-1.1-0.5-1.7
		C5.2,9.4,5.3,8.6,5.9,7.9C6,7.8,6,7.7,6,7.7c-0.2-0.5-0.1-1,0-1.5c0.1-0.5,0.2-0.5,0.6-0.4c0.5,0.1,1,0.4,1.4,0.7
		c0.1,0.1,0.1,0.1,0.3,0.1c1.2-0.3,2.3-0.3,3.5,0c0.1,0,0.2,0,0.2,0c0.3-0.2,0.5-0.3,0.8-0.4c0.3-0.1,0.6-0.3,1-0.3
		c0.1,0,0.2,0,0.2,0.1c0.2,0.6,0.3,1.1,0.1,1.7c0,0.1,0,0.2,0.1,0.3c0.3,0.4,0.5,0.8,0.6,1.2c0.1,0.6,0.1,1.1,0,1.7
		c-0.2,1.3-1,2.1-2.2,2.5C12.1,13.4,11.8,13.4,11.4,13.5z M8,14.7c-0.1,0-0.2,0-0.2,0.1c0,0.1,0.1,0.1,0.1,0.1c0.1,0,0.2,0,0.2-0.1
		C8.1,14.8,8,14.8,8,14.7z M7.4,15c0.1,0,0.2,0,0.1-0.1c0-0.1-0.1-0.1-0.2-0.1c-0.1,0-0.1,0-0.1,0.1C7.2,15,7.3,15,7.4,15z
		 M6.2,14.4c-0.1,0-0.1,0-0.1,0.1c0,0.1,0.1,0.2,0.2,0.2c0.1,0,0.1,0,0.1-0.1C6.3,14.5,6.3,14.4,6.2,14.4z M6.8,14.9
		c0.1,0,0.1,0,0.1-0.1c0-0.1-0.1-0.1-0.2-0.1c-0.1,0-0.1,0-0.1,0.1C6.6,14.9,6.7,14.9,6.8,14.9z M5.9,14.2c0,0,0.1-0.1,0.1-0.1
		C6,14,5.9,14,5.8,14c-0.1,0-0.1,0.1-0.1,0.1C5.8,14.2,5.8,14.2,5.9,14.2z M5.6,13.8C5.6,13.8,5.7,13.8,5.6,13.8
		c0.1-0.1,0-0.2,0-0.2c0,0-0.1,0-0.1,0.1C5.5,13.7,5.5,13.8,5.6,13.8z"/>
</g>
</svg>
