<?xml version="1.0" encoding="utf-8"?>
<!-- Generator: Adobe Illustrator 23.1.0, SVG Export Plug-In . SVG Version: 6.00 Build 0)  -->
<svg version="1.1" id="Capa_1" xmlns="http://www.w3.org/2000/svg" xmlns:xlink="http://www.w3.org/1999/xlink" x="0px" y="0px"
	 viewBox="0 0 30 30" style="enable-background:new 0 0 30 30;" xml:space="preserve">
<style type="text/css">
	.st0{fill:#FFFFFF;}
</style>
<g>
	<path class="st0" d="M29.1,14.2c0,0.5,0,1,0,1.5c0,0.1,0,0.2-0.1,0.3c-0.1,1.1-0.3,2.2-0.6,3.2c-1.6,5.1-6.1,8.9-11.4,9.7
		c-0.4,0.1-0.8,0.1-1.3,0.2c-0.5,0-1,0-1.5,0c-0.1,0-0.1,0-0.2,0c-0.9-0.2-1.9-0.2-2.8-0.5c-7.2-2-11.6-9.3-9.9-16.6
		c1.8-8,10.1-12.8,18-10.3c5.2,1.6,8.9,6,9.7,11.4C29,13.4,29,13.8,29.1,14.2z M15,25.8c0.6-0.1,1.3-0.1,1.9-0.2
		c1.5-0.3,3-0.8,4.3-1.7c0.4-0.2,0.5-0.7,0.3-1c-0.2-0.4-0.5-0.6-0.9-0.5c-0.2,0-0.3,0.1-0.4,0.2c-2.3,1.5-4.8,1.9-7.5,1.2
		c-3.6-1-6.3-4.2-6.6-7.9c-0.2-2,0.2-3.9,1.3-5.7C7.5,9.7,7.4,9.2,7,9C6.6,8.7,6.1,8.9,5.8,9.3c-1.4,2.4-1.9,4.9-1.4,7.7
		C5.3,22.1,9.8,25.8,15,25.8z M15.8,11.7c0-0.8,0-1.7,0-2.5c0-0.1,0-0.2,0-0.3c-0.1-0.4-0.5-0.7-0.9-0.6c-0.4,0-0.7,0.4-0.7,0.9
		c0,1.9,0,3.9,0,5.8c0,0.4,0.2,0.7,0.5,0.9c1,0.6,1.9,1.1,2.9,1.7c0.6,0.4,1.3,0.8,2,1.1c0.3,0.2,0.6,0.2,0.9-0.1
		c0.3-0.2,0.4-0.5,0.3-0.9c-0.1-0.3-0.2-0.4-0.5-0.6c-1.4-0.8-2.8-1.6-4.3-2.5c-0.2-0.1-0.2-0.2-0.2-0.4
		C15.8,13.4,15.8,12.5,15.8,11.7z M15,5.9c0.5,0,0.8-0.4,0.9-0.8c0-0.5-0.4-0.8-0.8-0.8c-0.4,0-0.8,0.4-0.8,0.8
		C14.2,5.5,14.5,5.9,15,5.9z M25,14.2c-0.5,0-0.8,0.4-0.8,0.8c0,0.5,0.4,0.8,0.8,0.8c0.5,0,0.8-0.4,0.9-0.8
		C25.8,14.6,25.4,14.2,25,14.2z M10.9,6.4c0-0.4-0.4-0.8-0.8-0.8c-0.4,0-0.8,0.4-0.8,0.8c0,0.5,0.4,0.8,0.8,0.8
		C10.5,7.2,10.9,6.8,10.9,6.4z M20.8,6.4c0-0.4-0.4-0.8-0.8-0.8c-0.4,0-0.8,0.4-0.8,0.8c0,0.5,0.4,0.8,0.9,0.8
		C20.4,7.2,20.8,6.8,20.8,6.4z M22.8,10c0,0.5,0.4,0.8,0.8,0.8c0.4,0,0.8-0.4,0.8-0.8c0-0.4-0.4-0.8-0.8-0.8
		C23.2,9.2,22.8,9.6,22.8,10z M22.8,19.9c0,0.5,0.4,0.9,0.8,0.9c0.4,0,0.8-0.4,0.8-0.8c0-0.4-0.4-0.9-0.8-0.9
		C23.2,19.1,22.8,19.5,22.8,19.9z"/>
</g>
</svg>
