<?xml version="1.0" encoding="utf-8"?>
<!-- Generator: Adobe Illustrator 23.1.0, SVG Export Plug-In . SVG Version: 6.00 Build 0)  -->
<svg version="1.1" id="Capa_1" xmlns="http://www.w3.org/2000/svg" xmlns:xlink="http://www.w3.org/1999/xlink" x="0px" y="0px"
	 viewBox="0 0 30 30" style="enable-background:new 0 0 30 30;" xml:space="preserve">
<style type="text/css">
	.st0{fill:#FFFFFF;}
</style>
<g>
	<path class="st0" d="M15,24.7c4.4,0,8.8,0,13.2,0c0.1,0,0.3,0,0.4,0c0.5,0,0.8-0.4,0.9-0.8c0.1-0.5-0.2-1-0.6-1.1
		c-0.2-0.1-0.4-0.1-0.6-0.1c-8.8,0-17.7,0-26.5,0c-0.2,0-0.3,0-0.5,0c-0.4,0.1-0.7,0.5-0.8,0.9c0,0.6,0.4,1.1,1.1,1.1
		C6.1,24.7,10.5,24.7,15,24.7z"/>
	<path class="st0" d="M15,3.8c3.4,0,6.7,0,10.1,0c1.2,0,2.1,0.7,2.4,1.9c0,0.2,0,0.4,0,0.6c0,4.4,0,8.8,0,13.2c0,1.5-1,2.5-2.5,2.5
		c-6.7,0-13.3,0-20,0c-1.5,0-2.5-1-2.5-2.5c0-4.4,0-8.8,0-13.2c0-1.5,1-2.5,2.5-2.5C8.3,3.8,11.7,3.8,15,3.8z M12.4,17.6
		c0,0.5,0.3,0.9,0.7,1.1c0.5,0.2,1.1-0.1,1.3-0.7c0.5-1.4,0.9-2.7,1.4-4.1c0.6-1.8,1.2-3.6,1.8-5.5c0.2-0.7-0.1-1.3-0.8-1.4
		c-0.5-0.1-0.9,0.2-1.1,0.8c-1.1,3.2-2.1,6.3-3.2,9.5C12.4,17.4,12.4,17.5,12.4,17.6z M9,12.8c0.1-0.1,0.2-0.2,0.3-0.2
		c0.8-0.8,1.5-1.5,2.3-2.3c0.4-0.4,0.4-1,0-1.4c-0.4-0.4-1-0.4-1.4,0C9,10,7.9,11.1,6.8,12.2c-0.4,0.4-0.4,1,0,1.4
		c0.2,0.2,0.3,0.3,0.5,0.5c0.9,0.9,1.8,1.8,2.7,2.7c0.3,0.3,0.6,0.4,1,0.3c0.4-0.1,0.6-0.4,0.7-0.8c0.1-0.4-0.1-0.7-0.3-1
		C10.7,14.5,9.9,13.7,9,12.8z M21,12.8c0,0,0,0.1,0,0.1c-0.1,0.1-0.2,0.1-0.3,0.2c-0.7,0.7-1.5,1.5-2.2,2.2c-0.4,0.4-0.4,1.1,0,1.5
		c0.4,0.4,1,0.4,1.4,0c1.1-1.1,2.2-2.1,3.2-3.2c0.4-0.4,0.4-1,0-1.4c-1.1-1.1-2.2-2.2-3.2-3.2c-0.4-0.4-1-0.4-1.4,0
		c-0.4,0.4-0.4,1,0,1.4c0.7,0.8,1.5,1.5,2.3,2.3C20.8,12.7,20.9,12.7,21,12.8z"/>
	<path class="st0" d="M15,24.7c-4.5,0-8.9,0-13.4,0c-0.7,0-1.2-0.4-1.1-1.1c0-0.4,0.3-0.8,0.8-0.9c0.2,0,0.3,0,0.5,0
		c8.8,0,17.7,0,26.5,0c0.2,0,0.4,0,0.6,0.1c0.4,0.1,0.7,0.6,0.6,1.1c-0.1,0.4-0.5,0.8-0.9,0.8c-0.1,0-0.3,0-0.4,0
		C23.8,24.7,19.4,24.7,15,24.7z"/>
</g>
</svg>
