<?xml version="1.0" encoding="UTF-8"?>
<svg xmlns="http://www.w3.org/2000/svg" xmlns:xlink="http://www.w3.org/1999/xlink" width="30px" height="30px" viewBox="0 0 30 30" version="1.1">
<g id="surface1">
<path style=" stroke:none;fill-rule:nonzero;fill:rgb(13.333333%,81.568627%,92.941176%);fill-opacity:1;" d="M 0.3125 14.761719 C 0.324219 14.734375 0.324219 14.710938 0.324219 14.683594 C 0.324219 14.046875 0.449219 13.429688 0.625 12.820312 C 0.847656 12.070312 1.175781 11.371094 1.613281 10.722656 C 1.871094 10.34375 2.160156 9.984375 2.472656 9.648438 C 2.980469 9.101562 3.558594 8.632812 4.207031 8.25 C 5.023438 7.765625 5.902344 7.445312 6.839844 7.285156 C 7.171875 7.222656 7.5 7.183594 7.835938 7.175781 C 8.0625 7.171875 8.285156 7.164062 8.515625 7.171875 C 9.359375 7.199219 10.175781 7.351562 10.972656 7.644531 C 11.628906 7.882812 12.246094 8.195312 12.820312 8.59375 C 13.261719 8.890625 13.675781 9.226562 14.035156 9.617188 C 14.855469 10.5 15.480469 11.507812 15.859375 12.652344 C 16.027344 13.164062 16.132812 13.691406 16.195312 14.226562 C 16.207031 14.320312 16.210938 14.425781 16.222656 14.519531 C 16.230469 14.617188 16.261719 14.652344 16.363281 14.65625 C 16.390625 14.65625 16.421875 14.65625 16.445312 14.65625 C 19.65625 14.65625 22.867188 14.65625 26.070312 14.65625 C 26.09375 14.65625 26.117188 14.65625 26.140625 14.65625 C 26.25 14.65625 26.285156 14.628906 26.320312 14.527344 C 26.394531 14.292969 26.496094 14.070312 26.652344 13.878906 C 26.929688 13.535156 27.28125 13.320312 27.71875 13.253906 C 28.105469 13.195312 28.476562 13.222656 28.828125 13.410156 C 29.375 13.691406 29.6875 14.148438 29.796875 14.746094 C 29.800781 14.773438 29.808594 14.789062 29.808594 14.808594 C 29.808594 14.929688 29.808594 15.046875 29.808594 15.167969 C 29.796875 15.234375 29.785156 15.292969 29.773438 15.359375 C 29.628906 16.09375 28.972656 16.679688 28.234375 16.757812 C 27.75 16.804688 27.304688 16.6875 26.921875 16.386719 C 26.644531 16.171875 26.460938 15.886719 26.351562 15.558594 C 26.28125 15.335938 26.273438 15.335938 26.039062 15.335938 C 23.148438 15.335938 20.25 15.335938 17.359375 15.335938 C 17.058594 15.335938 16.757812 15.335938 16.457031 15.335938 C 16.421875 15.335938 16.386719 15.335938 16.351562 15.34375 C 16.273438 15.355469 16.242188 15.390625 16.234375 15.472656 C 16.21875 15.648438 16.210938 15.820312 16.195312 15.996094 C 16.144531 16.46875 16.054688 16.9375 15.917969 17.394531 C 15.679688 18.191406 15.324219 18.941406 14.855469 19.636719 C 14.628906 19.972656 14.375 20.285156 14.101562 20.578125 C 13.410156 21.304688 12.625 21.886719 11.722656 22.324219 C 10.996094 22.675781 10.234375 22.902344 9.4375 23.015625 C 8.992188 23.082031 8.550781 23.113281 8.105469 23.101562 C 7.027344 23.0625 5.980469 22.855469 4.992188 22.402344 C 4.320312 22.078125 3.714844 21.679688 3.15625 21.203125 C 2.578125 20.722656 2.070312 20.171875 1.65625 19.546875 C 1.1875 18.847656 0.847656 18.085938 0.617188 17.273438 C 0.496094 16.84375 0.414062 16.402344 0.367188 15.960938 C 0.347656 15.808594 0.34375 15.660156 0.335938 15.511719 C 0.335938 15.480469 0.335938 15.449219 0.324219 15.425781 C 0.3125 15.203125 0.3125 14.980469 0.3125 14.761719 Z M 8.382812 8.773438 C 4.738281 8.777344 1.945312 11.628906 1.921875 15.046875 C 1.90625 16.878906 2.554688 18.445312 3.875 19.714844 C 5.101562 20.890625 6.582031 21.492188 8.28125 21.492188 C 10.019531 21.484375 11.539062 20.875 12.773438 19.636719 C 14.011719 18.40625 14.644531 16.902344 14.652344 15.160156 C 14.65625 13.421875 14.046875 11.910156 12.820312 10.667969 C 11.566406 9.402344 10.03125 8.796875 8.382812 8.773438 Z M 8.382812 8.773438 "/>
<path style=" stroke:none;fill-rule:nonzero;fill:rgb(13.333333%,81.568627%,92.941176%);fill-opacity:1;" d="M 12.925781 15.148438 C 12.949219 17.644531 10.835938 19.859375 8.113281 19.765625 C 5.710938 19.679688 3.613281 17.722656 3.640625 15.078125 C 3.671875 12.5625 5.675781 10.46875 8.335938 10.488281 C 10.894531 10.507812 12.941406 12.605469 12.925781 15.148438 Z M 12.925781 15.148438 "/>
</g>
</svg>