<svg xmlns="http://www.w3.org/2000/svg" xmlns:xlink="http://www.w3.org/1999/xlink" width="20px" height="100px" viewBox="0 0 50 250" version="1.1">
<g id="surface1">
<path style=" stroke:none;fill-rule:nonzero;fill:rgb(100%,100%,100%);fill-opacity:1;" d="M 20.949219 137.5 C 20.949219 103.800781 20.949219 70.101562 21 36.398438 C 21 34.050781 20.5 32.800781 18.101562 31.800781 C 12.898438 29.648438 10.351562 23.898438 11.601562 18.351562 C 12.851562 12.800781 17.648438 9.050781 23.398438 9.101562 C 29 9.148438 33.699219 12.898438 34.949219 18.300781 C 36.25 23.851562 33.699219 29.648438 28.5 31.75 C 25.851562 32.800781 25.601562 34.300781 25.601562 36.648438 C 25.648438 104.050781 25.648438 171.398438 25.648438 238.800781 C 25.648438 242.351562 25.398438 242.601562 22.699219 242.398438 C 21.550781 242.300781 21.050781 241.851562 21.050781 240.75 C 21.050781 239.851562 21.050781 238.949219 21.050781 238.050781 C 20.949219 204.550781 20.949219 171.050781 20.949219 137.5 Z M 20.949219 137.5 "/>
</g>
</svg>