<?xml version="1.0" encoding="utf-8"?>
<!-- Generator: Adobe Illustrator 23.1.0, SVG Export Plug-In . SVG Version: 6.00 Build 0)  -->
<svg version="1.1" id="Capa_1" xmlns="http://www.w3.org/2000/svg" xmlns:xlink="http://www.w3.org/1999/xlink" x="0px" y="0px"
	 viewBox="0 0 20 20" style="enable-background:new 0 0 20 20;" xml:space="preserve">
<style type="text/css">
	.st0{fill:#FFFFFF;}
</style>
<g>
	<path class="st0" d="M15.2,20c-3.4,0-6.9,0-10.3,0c0,0-0.1,0-0.1,0c-2.2-0.3-3.7-1.5-4.5-3.6C0.1,16,0.1,15.6,0,15.2
		c0-3.4,0-6.9,0-10.3c0-0.1,0-0.1,0-0.2C0.3,2,2.6,0,5.2,0c3.2,0,6.4,0,9.6,0C17.6,0,20,2.4,20,5.2c0,3.2,0,6.4,0,9.6
		c0,2.2-1.5,4.2-3.6,4.9C16,19.9,15.6,19.9,15.2,20z M16.5,10c0-1,0-2,0-2.9c0-2-1.6-3.6-3.6-3.6c-2,0-3.9,0-5.9,0
		c-0.2,0-0.5,0-0.7,0.1C4.7,3.9,3.5,5.3,3.5,7.1c0,1.9,0,3.9,0,5.8c0,2,1.5,3.6,3.6,3.6c1.9,0,3.9,0,5.8,0c2,0,3.6-1.5,3.6-3.6
		C16.5,11.9,16.5,11,16.5,10z"/>
	<path class="st0" d="M4.7,10c0-1,0-1.9,0-2.9c0-1.4,1-2.4,2.4-2.4c1.9,0,3.9,0,5.8,0c1.4,0,2.4,1,2.4,2.4c0,1.9,0,3.9,0,5.8
		c0,1.4-1,2.4-2.4,2.4c-1.9,0-3.9,0-5.8,0c-1.4,0-2.4-1-2.4-2.4C4.7,12,4.7,11,4.7,10z M12.9,10c0-1.6-1.3-2.9-2.9-2.9
		c-1.6,0-2.9,1.3-2.9,2.9c0,1.6,1.3,2.9,2.9,2.9C11.6,12.9,12.9,11.6,12.9,10z M13.4,6.1c-0.3,0-0.6,0.3-0.6,0.6
		c0,0.3,0.3,0.6,0.6,0.6c0.3,0,0.6-0.3,0.6-0.6C13.9,6.3,13.7,6.1,13.4,6.1z"/>
	<path class="st0" d="M11.8,10c0,1-0.8,1.8-1.8,1.8c-1,0-1.8-0.8-1.8-1.7C8.2,9,9,8.2,10,8.2C11,8.2,11.7,9,11.8,10z"/>
</g>
</svg>