<?xml version="1.0" encoding="utf-8"?>
<!-- Generator: Adobe Illustrator 23.1.0, SVG Export Plug-In . SVG Version: 6.00 Build 0)  -->
<svg version="1.1" id="Capa_1" xmlns="http://www.w3.org/2000/svg" xmlns:xlink="http://www.w3.org/1999/xlink" x="0px" y="0px"
	 viewBox="0 0 20 20" style="enable-background:new 0 0 20 20;" xml:space="preserve">
<style type="text/css">
	.st0{fill:#FFFFFF;}
</style>
<g>
	<path class="st0" d="M10.5,20c-0.4,0-0.7,0-1.1,0c-0.1,0-0.1,0-0.2,0c-1.7-0.1-3.2-0.6-4.6-1.5c-0.1-0.1-0.2-0.1-0.4-0.1
		c-1.1,0.4-2.3,0.7-3.4,1.1c-0.1,0-0.1,0.1-0.2,0c-0.1-0.1,0-0.1,0-0.2c0.4-1.1,0.7-2.1,1.1-3.2c0.1-0.2,0-0.3-0.1-0.5
		c-1.5-2.3-2.1-4.8-1.6-7.5c0.4-2.3,1.6-4.3,3.4-5.8c2.3-1.9,5-2.7,8-2.2c1.9,0.3,3.6,1.1,5,2.4c1.8,1.6,2.9,3.6,3.3,6
		c0,0.3,0.1,0.6,0.1,0.9c0,0.4,0,0.7,0,1.1c0,0.1,0,0.1,0,0.2c0,0.4-0.1,0.7-0.1,1.1c-0.5,2.3-1.6,4.2-3.4,5.8c-1.4,1.2-3.1,2-5,2.2
		C11.1,19.9,10.8,20,10.5,20z M13.3,15.6c0.6,0,1.1-0.2,1.6-0.5c0.8-0.5,1.1-1.3,1.1-2.2c0-0.2-0.1-0.3-0.2-0.4
		c-0.8-0.4-1.5-0.8-2.3-1.1c-0.3-0.2-0.6-0.1-0.8,0.2c-0.2,0.3-0.4,0.6-0.6,0.8c-0.3,0.4-0.5,0.4-1,0.2C9.5,12.1,8.3,11,7.4,9.5
		C7.1,9.1,7.1,9,7.4,8.7C7.6,8.4,7.8,8.2,8,8c0.2-0.2,0.2-0.5,0.1-0.8C7.8,6.6,7.6,6,7.3,5.3C7,4.6,6.9,4.5,6.1,4.6
		c-0.3,0-0.6,0.1-0.9,0.3C5,5.2,4.7,5.4,4.6,5.8c-0.5,1-0.5,2-0.1,3c0.3,0.8,0.8,1.5,1.3,2.1c1.5,2,3.3,3.6,5.7,4.3
		C12.1,15.4,12.6,15.6,13.3,15.6z"/>
</g>
</svg>
